<svg xmlns="http://www.w3.org/2000/svg" viewBox="0 0 450 120" width="450" height="120" aria-label="Rabbia Ashraf, Clinical Child Psychologist" role="img">
  <title>Rabbia Ashraf, Clinical Child Psychologist</title>

  <!-- Icon Group (Light colors for dark background) -->
  <g transform="translate(10, 10) scale(0.8)">
    <path d="M 20 85 C 40 100, 60 90, 60 70 C 60 90, 80 100, 100 85" fill="none" stroke="#DCEEFF" stroke-width="6" stroke-linecap="round" />
    <path d="M 45 40 L 45 75 M 45 40 C 60 40, 60 55, 45 55 L 58 75" fill="none" stroke="#FFF8EF" stroke-width="7" stroke-linecap="round" stroke-linejoin="round" />
    <path d="M 75 75 L 65 40 L 55 75 M 58 60 L 72 60" fill="none" stroke="#FFF8EF" stroke-width="7" stroke-linecap="round" stroke-linejoin="round" />
    <circle cx="60" cy="25" r="8" fill="#8BBF9F" />
    <path d="M 70 30 C 85 20, 95 35, 80 45" fill="#4B8BBE" opacity="0.8" />
  </g>

  <!-- Wordmark -->
  <g transform="translate(110, 0)">
    <style>
      .name-dark { font-family: 'Georgia', 'Times New Roman', serif; font-size: 32px; fill: #FFF8EF; font-weight: bold; letter-spacing: 0.5px; }
      .descriptor-dark { font-family: 'Arial', 'Helvetica', sans-serif; font-size: 14px; fill: #DCEEFF; letter-spacing: 1.5px; font-weight: 600; text-transform: uppercase; }
    </style>
    <text x="0" y="60" class="name-dark">Rabbia Ashraf</text>
    <text x="2" y="85" class="descriptor-dark">Clinical Child Psychologist</text>
  </g>
</svg>
