
<svg width="600" height="200" viewBox="0 0 600 200" xmlns="http://www.w3.org/2000/svg">
  <g transform="translate(20, 0)">

<svg width="140" height="140" x="0" y="30" viewBox="0 0 200 200" xmlns="http://www.w3.org/2000/svg">
  <defs>
    <linearGradient id="grad1" x1="0%" y1="0%" x2="100%" y2="100%">
      <stop offset="0%" stop-color="#0F2742" />
      <stop offset="100%" stop-color="#4B8BBE" />
    </linearGradient>
    <linearGradient id="grad2" x1="0%" y1="100%" x2="100%" y2="0%">
      <stop offset="0%" stop-color="#8BBF9F" />
      <stop offset="100%" stop-color="#4B8BBE" />
    </linearGradient>
    <linearGradient id="gradLight" x1="0%" y1="0%" x2="100%" y2="100%">
      <stop offset="0%" stop-color="#FFFFFF" />
      <stop offset="100%" stop-color="#E2E8F0" />
    </linearGradient>
  </defs>
  <path d="M50 140 C 50 100, 70 60, 110 60 C 140 60, 150 80, 150 100 C 150 120, 130 140, 100 140 C 75 140, 90 90, 120 100" fill="none" stroke="url(#grad1)" stroke-width="16" stroke-linecap="round" />
  <path d="M120 100 C 130 110, 140 140, 150 150" fill="none" stroke="url(#grad2)" stroke-width="16" stroke-linecap="round" />
  <circle cx="100" cy="50" r="8" fill="#8BBF9F" />
</svg>

    <text x="160" y="95" font-family="-apple-system, BlinkMacSystemFont, 'Segoe UI', Roboto, Helvetica, Arial, sans-serif, 'Apple Color Emoji', 'Segoe UI Emoji', 'Segoe UI Symbol'" font-size="36" font-weight="700" fill="#FFFFFF">Rabbia Ashraf &amp; Associates</text>
    <text x="160" y="130" font-family="-apple-system, BlinkMacSystemFont, 'Segoe UI', Roboto, Helvetica, Arial, sans-serif, 'Apple Color Emoji', 'Segoe UI Emoji', 'Segoe UI Symbol'" font-size="16" font-weight="500" fill="#E2E8F0" letter-spacing="1">Child Development, Parent Guidance &amp; Specialist Consultation</text>
  </g>
</svg>
