
<svg width="400" height="300" viewBox="0 0 400 300" xmlns="http://www.w3.org/2000/svg">
  <g transform="translate(0, 20)">

<svg width="120" height="120" x="140" y="0" viewBox="0 0 200 200" xmlns="http://www.w3.org/2000/svg">
  <defs>
    <linearGradient id="grad1" x1="0%" y1="0%" x2="100%" y2="100%">
      <stop offset="0%" stop-color="#0F2742" />
      <stop offset="100%" stop-color="#4B8BBE" />
    </linearGradient>
    <linearGradient id="grad2" x1="0%" y1="100%" x2="100%" y2="0%">
      <stop offset="0%" stop-color="#8BBF9F" />
      <stop offset="100%" stop-color="#4B8BBE" />
    </linearGradient>
    <linearGradient id="gradLight" x1="0%" y1="0%" x2="100%" y2="100%">
      <stop offset="0%" stop-color="#FFFFFF" />
      <stop offset="100%" stop-color="#E2E8F0" />
    </linearGradient>
  </defs>
  <path d="M50 140 C 50 100, 70 60, 110 60 C 140 60, 150 80, 150 100 C 150 120, 130 140, 100 140 C 75 140, 90 90, 120 100" fill="none" stroke="url(#grad1)" stroke-width="16" stroke-linecap="round" />
  <path d="M120 100 C 130 110, 140 140, 150 150" fill="none" stroke="url(#grad2)" stroke-width="16" stroke-linecap="round" />
  <circle cx="100" cy="50" r="8" fill="#8BBF9F" />
</svg>

    <text x="200" y="170" text-anchor="middle" font-family="-apple-system, BlinkMacSystemFont, 'Segoe UI', Roboto, Helvetica, Arial, sans-serif" font-size="28" font-weight="700" fill="#0F2742">Rabbia Ashraf</text>
    <text x="200" y="205" text-anchor="middle" font-family="-apple-system, BlinkMacSystemFont, 'Segoe UI', Roboto, Helvetica, Arial, sans-serif" font-size="24" font-weight="700" fill="#0F2742">&amp; Associates</text>
    <text x="200" y="240" text-anchor="middle" font-family="-apple-system, BlinkMacSystemFont, 'Segoe UI', Roboto, Helvetica, Arial, sans-serif" font-size="14" font-weight="500" fill="#4B8BBE" letter-spacing="0.5">Child Development, Parent Guidance</text>
    <text x="200" y="265" text-anchor="middle" font-family="-apple-system, BlinkMacSystemFont, 'Segoe UI', Roboto, Helvetica, Arial, sans-serif" font-size="14" font-weight="500" fill="#4B8BBE" letter-spacing="0.5">&amp; Specialist Consultation</text>
  </g>
</svg>
